# xmcd
#
# Track frame offsets:
#	150
#	14559
#	26607
#	41848
#	56103
#	70407
#	83766
#	98321
#	111205
#	122525
#	136142
#	148200
#	160498
#	173586
#	187419
#	196786
#	210814
#	224800
#	237464
#	253267
#	267141
#	280338
#
# Disc length: 3930
#
# Revision: 2
# Processed by: cddbd v1.5.1PL0 Copyright (c) Steve Scherf et al.
# Submitted via: CDex 1.40Beta9
# Normalized: r0:TDELIM( - ),TSWAP
#
DISCID=4e0f5816
DTITLE=Various Artist - Baby I Done Got Wise - The Best of the Blues
DYEAR=2000
DGENRE=Blues
TTITLE0=Sonny boy Williamson - Coal And Iceman Blues
TTITLE1=Big Joe Williams' Washboard Blues Singers - Baby Please Don't Go
TTITLE2=Bessie Smith - Careless Love Blues
TTITLE3=Leroy Carr - Tired Of Your Lowdown Ways
TTITLE4=Kokomo Arnold - Milk Cow Blues
TTITLE5=Robert Johnson - I Believe I'll Dust My Broom
TTITLE6=Dr Clayton - Cheating And Lying Blues
TTITLE7=Bertha Idaho - Down On Pennsylvania Avenue
TTITLE8=Big Bill Broonzy - Baby I Done Got Wise
TTITLE9=Blind Willie McTell - Scary Day Blues
TTITLE10=Robert Johnson - Cross Road Blues
TTITLE11=Tommy McLennan - Baby Please Don't Tell On Me
TTITLE12=Sippie Thomas - I'm A Mighty Tight Woman
TTITLE13=Mississippi Sheiks - Sitting On Top Of The World
TTITLE14=Leadbelly - Rock Island Line
TTITLE15=Bessie Smith - The St Louis Blues
TTITLE16=Hambone Willie Newbern - Roll And Tumble Blues
TTITLE17=Bukka White - Fixin' To Die Blues
TTITLE18=Tampa Red's Hokum Jug Band - My Daddy Rocks Me (With One Steady Roll)
TTITLE19=Muddy Waters - I Be's Troubled
TTITLE20=Roosevelt Sykes - Poor Boy Blues
TTITLE21=Sleepy John Estes - Broken Hearted, Ragged And Dirty Too
EXTD=YEAR: 2000 ID3G: 0
EXTT0=
EXTT1=
EXTT2=
EXTT3=
EXTT4=
EXTT5=
EXTT6=
EXTT7=
EXTT8=
EXTT9=
EXTT10=
EXTT11=
EXTT12=
EXTT13=
EXTT14=
EXTT15=
EXTT16=
EXTT17=
EXTT18=
EXTT19=
EXTT20=
EXTT21=
PLAYORDER=
